# xmcd
#
# Track frame offsets: 
#        150
#        14607
#        35477
#        50260
#        75132
#        87007
#        102202
#        119555
#        137402
#        156385
#        177477
#        192707
#        209195
#        229459
#
# Disc length: 3265 seconds
#
# Revision: 0
# Processed by: cddbd v1.5.2PL0 Copyright (c) Steve Scherf et al.
# Submitted via: ExactAudioCopy v1.0b3
#
DISCID=c30cbf0e
DTITLE=Andreas - Melodic Winds
DYEAR=1998
DGENRE=New Age
TTITLE0=Melodic Winds
TTITLE1=Golden Years
TTITLE2=Bright Day
TTITLE3=The Hymn of Heroes
TTITLE4=A Walk in the Rain
TTITLE5=Weekend
TTITLE6=Song for the Children
TTITLE7=A New Beginning
TTITLE8=Sensitive Soul
TTITLE9=Broken Heart
TTITLE10=Passion for Life
TTITLE11=Summer Island
TTITLE12=Father's Memory
TTITLE13=The Beauty of Nature
EXTD=
EXTT0=
EXTT1=
EXTT2=
EXTT3=
EXTT4=
EXTT5=
EXTT6=
EXTT7=
EXTT8=
EXTT9=
EXTT10=
EXTT11=
EXTT12=
EXTT13=
PLAYORDER=
